<svg xmlns="http://www.w3.org/2000/svg" xmlns:xlink="http://www.w3.org/1999/xlink" x="0px" y="0px" viewBox="0 0 512 512" style="enable-background:new 0 0 512 512;" xml:space="preserve"><style type="text/css">	.st0{fill:#59256A;}	.st1{fill:#F6F6F6;}</style><g id="Capa_13">	<rect class="st0" width="512" height="512"></rect></g><g id="arco_1">	<path class="st1" d="M36.7,289.47c-0.17,6.67-0.06,13.71,0.42,21.05c1.28,19.4,4.77,34.77,7.09,43.55  c2.26,8.56,6.82,23.82,15.4,41.54c7.35,15.19,20.02,37.06,41.37,59.5c-8.79-7.99-18.32-17.72-27.79-29.4  c-7.51-9.26-20.29-25.64-31.62-49.14c-5.56-11.54-19.71-43.4-22.67-87.31c-0.03-0.52-0.07-1.09-0.11-1.74  C25.15,289.06,31.14,289.74,36.7,289.47z"></path></g><g id="arco_2">	<path class="st1" d="M362.68,111.36c-18.39-8.39-33.81-12.58-42.54-14.65c-13.72-3.25-48.07-10.04-91.4-2.98  c-35.7,5.82-61.3,18.41-71.53,23.84c-10.05,5.34-28.8,16.27-48.68,34.77C79.9,179,64.73,206.66,57.87,220.89  c-0.67,1.4-1.43,3.01-2.25,4.81l-36.82,3.57c3.12-9.84,7.39-21.17,13.24-33.22c7.04-14.51,23.39-44.52,54.64-73.51  c29.24-27.13,57.76-40.6,69.54-45.7c15.56-6.74,47.79-18.75,90.4-19.87c14.25-0.37,38.99,0.23,68.55,7.95  c35.88,9.37,61.82,24.78,75.26,33.85L362.68,111.36z"></path></g><g id="arco_3">	<path class="st1" d="M446.95,152.17c4.49,5.84,8.96,12.19,13.27,19.04c6.01,9.56,18.69,31.22,27.82,61.59  c6.5,21.65,8.46,38.11,8.94,42.72c0.34,3.21,1.5,15.1,0.99,30.8c-0.27,8.43-1.99,21.86-1.99,21.86s2.81-31.58-6.95-69.54  c-1.19-4.62-5.93-22.37-16.89-43.71c-5.11-9.95-15.96-29.24-34.77-49.67c-1.59-1.72-3.53-3.78-5.82-6.09L446.95,152.17z"></path></g><g id="m"></g><g id="u"></g><g id="n"></g><g id="r"></g><g id="a"></g><g id="g"></g><g id="e"></g><g id="persona">	<path class="st1" d="M210.56,395.64c-2.54,5.47-3.32,7.49-2.81,9.98c0.48,2.36,1.37,3.58,1.09,5.77c-0.31,2.5-0.9,4.83-2.96,7.95  c-1.87,2.84-4.19,6.92-6.24,12.48c-1.14-0.1-2.96-1.36-3.43-0.31c-1.25,2.81-4.5,4.37-9.36,5.93c-7.8,2.5-11.64,2.39-15.6,2.81  c-6.31,0.66-9.16-1.56-9.36-2.18c-6.55,0-11.6-1.4-14.66-0.31c-2.42,0.86-5.98,1.05-9.98,1.25c-2.47,0.12-5.61-0.31-5.61-0.31  c-0.39-1.69,4.99-4.47,8.73-5.93c7.27-2.82,11.74-1.95,17.78-2.81c4.64-0.66,11.16-2.49,18.72-7.8c-0.87-1.02-1.95-2.61-2.18-4.68  c-0.43-3.83,2.4-6.2,4.05-9.67c2.54-5.33,1.89-7.36,2.34-15.75c0.5-9.31,2.03-10.31,4.21-22.3c0.14-0.78,0.41-5.21,0.94-14.04  c1.2-20.08,1.24-22.97,0.62-27.45c-0.74-5.33-1.32-7.89-1.4-12.32c-0.13-6.84,1.59-6.57,2.65-14.19  c1.51-10.82-1.39-13.36,1.25-19.03c2.41-5.18,12.48-11.85,12.48-11.85s-0.1-5.95-2.18-7.49c-1.21-0.9-3.02-0.38-4.37,0  c-4.78,1.36-5.87,5.07-8.73,4.99c-1.03-0.03-2.55-0.55-4.37-3.12c-0.6,0.54-1.59,1.23-2.81,1.25c-2.06,0.02-3.11-1.92-6.55-5.3  c-4.84-4.77-6.88-5-7.8-4.99c-1.59,0.01-1.74,1-3.12,0.94c-2.69-0.13-7.28-9.13-12.01-11.45l-6.76-5.7  c-1.47-1.24-2.4-2.97-2.77-4.86c-0.35-1.84-1.62-4.22-0.61-6.06c0.46-0.83,0.83-2.33,1.56-5.3c0.41-1.67,0.72-3.07,0.94-4.05  c-0.91-0.29-2.06-0.82-2.5-1.87c-0.88-2.12,2.13-4.02,4.99-9.67c1.94-3.82,1.52-4.85,3.74-8.11c1.54-2.27,3.11-3.78,3.74-4.37  c1.41-1.3,1.94-1.5,6.24-4.37c4.93-3.29,4.85-3.45,6.24-4.05c1.41-0.61,1.01-0.24,6.86-1.87c3.37-0.94,4.86-1.45,6.55-2.5  c1.27-0.79,2.2-1.6,2.81-2.18c4.22,0.06,7.6,0.67,9.98,1.25c4.01,0.97,3.36,1.42,7.8,2.5c2.8,0.68,4.29,0.8,5.61,2.18  c0.66,0.69,1.08,1.49,2.18,1.87c1.13,0.39,1.81-0.08,2.81,0c1.56,0.12,2.51,1.45,4.05,3.43c1.49,1.9,2.23,2.85,2.18,4.05  c-0.09,2.37-2.75,3.86-3.12,4.05c0.74,5.18,3.1,7.36,4.05,8.11c2.38,1.87,7.41,3.79,9.98,3.74c0.19,0,0.74-0.02,1.25,0.31  c0.92,0.61,1.37,2.2,0.94,3.43c-0.22,0.63-1.29,1.57-3.43,3.43c-0.55,0.48-0.9,0.78-0.94,1.25c-0.06,0.88,1.01,1.77,1.87,2.18  c1.12,0.55,1.82,0.26,2.5,0.94c0.39,0.39,0.55,0.89,0.62,1.25c0.4-0.24,0.89-0.24,1.25,0c0.25,0.17,0.35,0.52,0.31,1.56  c-0.07,1.85-0.48,2.06-0.31,2.81c0.2,0.9,0.84,0.81,1.87,2.18c0.61,0.82,1.43,1.9,1.25,3.12c-0.2,1.32-1.58,2.14-2.18,2.5  c-3.61,2.14-11.92,7.08-11.85,10.92c0.02,1.23,1.14,2.38,1.25,2.5c0.96,1.03,1.79,1.57,3.28,2.65c0.81,0.59,1.24,1.58,1.56,3.12  c0.26,1.23,0.32,0.6,0.47,2.34c0.1,1.14,0.5,2.08,0.94,3.12c0.34,0.8,0.68,1.44,0.94,1.87c2.48-1.32,4.57-1.9,5.93-2.18  c4.68-0.98,7.02,0.19,13.1-0.94c1.3-0.24,2.35-0.44,3.74-0.94c3.61-1.28,4.64-3.21,7.8-4.99c1.3-0.73,3.34-1.67,6.24-2.18  l23.08-13.41c3.33-1.74,5.06-1.15,6.86-3.12c0.8-0.87,0.74-1.29,1.87-3.43c1.64-3.11,2.54-3.18,3.43-5.3  c0.82-1.95,0.43-2.33,1.25-3.43c1.17-1.59,2.73-1.8,4.05-2.5c1.62-0.85,3.54-2.76,4.68-7.49c1.35,0.83,2.7,1.66,4.05,2.5  c1.59-2.5,2.22-4.67,2.5-6.24c0.62-3.5-0.23-5.7,0.94-9.98c0.18-0.66,0.3-0.98,0.31-1.56c0.05-2.65-2.33-3.44-3.74-6.24  c-0.45-0.88-0.62-3.31-0.94-8.11c-0.14-2.18-0.25-4-0.31-5.3c0.54-0.06,1.82-0.12,3.12,0.62c1.23,0.71,1.78,1.75,2.18,2.5  c0.83,1.56,0.14,2.16,0.94,4.05c0.41,0.98,0.67,1.06,1.25,2.18c0.76,1.48,1.09,2.83,1.25,3.74c0.07-0.77,0.28-1.92,0.94-3.12  c0.96-1.76,2.09-2.14,3.12-3.74c0.93-1.44,1.03-2.73,1.25-4.05c0.33-2.03,0.6-2.12,7.17-16.22c0.44-0.94,1.21-2.6,1.87-2.5  c0.72,0.12,0.92,2.29,0.94,2.5c0.12,1.43-0.23,2.31-0.62,4.05c-0.39,1.74-0.31,2.01-0.62,3.74c-0.32,1.73-0.92,4.26-2.18,7.49  c1.76-2.02,3.11-3.74,4.05-4.99c1.28-1.7,2.08-2.89,3.12-2.81c0.6,0.05,1.02,0.55,1.87,1.56c0.67,0.79,1.64,1.97,1.87,3.74  c0.09,0.65,0.05,1.2,0,1.56c-0.41-0.1-1.37-0.38-2.18-1.25c-0.54-0.58-0.81-1.19-0.94-1.56c-0.25,0.67-0.66,1.66-1.25,2.81  c-0.56,1.09-0.98,1.73-1.25,2.18c-0.63,1.08-1.33,2.75-1.56,5.3c1.78-1.9,3.15-3.38,4.37-4.68c1.38-1.48,2.43-2.61,3.74-2.5  c0.66,0.05,1.21,0.4,1.56,0.62c1.15,0.72,1.66,1.75,1.87,2.18c0.3,0.61,0.4,1.34,0.62,2.81c0.19,1.28,0.12,1.47,0,1.56  c-0.44,0.33-1.69-0.59-2.5-1.25c-0.38,0.52-1,0.56-1.25,0.31c-0.19-0.19-0.2-0.58,0-0.94c-0.57,1.29-1.12,2.34-1.56,3.12  c-0.72,1.27-1.12,1.98-1.87,2.81c-0.74,0.82-1.3,1.18-1.25,1.25c0.09,0.13,2.18-0.76,4.05-2.5c0.78-0.72,1.04-1.14,1.87-1.56  c0.22-0.11,2.04-1,2.81-0.31c0.64,0.58,0.22,2-0.31,3.74c-0.69,2.25-1.56,3.74-1.56,3.74c-3.07,5.28-4.6,7.92-7.49,10.29  c-3.42,2.81-5.4,2.64-7.8,5.93c-0.96,1.32-1.53,2.56-1.87,3.43c-0.17,1.49-0.52,3.31-1.25,5.3c-0.39,1.05-0.82,1.99-1.25,2.81  c1.14,0.73,2.29,1.46,3.43,2.18c-0.21,0.56-0.53,1.43-0.94,2.5c-1.84,4.8-2.7,6.46-3.74,9.36c-1.39,3.85-0.88,3.69-1.87,6.24  c-2.23,5.7-5.91,9.38-7.49,10.92c-1.68,1.64-1.11,0.75-9.36,7.17c-4.65,3.62-4.25,3.46-5.61,4.37c-4.23,2.83-5.98,3.03-8.11,5.61  c-1.87,2.26-2.54,1.47-4.05,2.5c-2.77,1.89-3.72,1.07-7.49,2.5c-2.24,0.85-1.73,1.79-6.24,5.3c-3.47,2.7-3.92,2.26-5.61,4.05  c-0.93,0.99-0.93,1.26-4.05,7.49c-1.63,3.23-2.9,5.69-3.12,8.73c-0.07,0.93-0.03,1.83,0.35,2.64c0.19,0.4,0.38,0.81,0.51,1.23  l1.5,4.86c0.46,1.49,0.65,3.05,0.57,4.61c-0.06,1.03-0.05,2.14,0.2,2.56c0.64,1.07,1.66,1.3,2.81,1.87c2.4,1.2,3.65,3.1,5.3,5.61  c3.5,5.32,1.25,5.93,3.12,13.41c-0.32-1.27,5.15-1.09,6.39-1.09c1.56,0,4.93,1.44,6.24,2.5c1.59,1.28,5.51,4.22,6.08,5.46  c2.66-2.46,4.94-3.21,6.55-3.43c1.26-0.17,2.39-0.06,3.43-0.94l6.39-5.77c4.28-1.72,11.9-7.06,12.94-7.33  c6.91-1.8,11.44-6.21,13.72-8.11c3.85-3.21,2.89-3.42,6.24-5.93c1.44-1.08,2.92-2.01,12.16-6.55c6.9-3.39,6.7-3.18,7.49-3.74  c3.31-2.37,4.89-4.72,8.73-5.93c1.36-0.43,2.61-1.22,3.43-0.62c0.91,0.66,0.69,2.38,0.62,2.81c1.76-0.09,4.93,0,8.42,1.56  c5.31,2.37,7.89,6.58,8.73,8.11c5.59-3.85,10.59-5.3,13.72-5.93c0.93-0.18,11.05-2.19,12.48,0.94c0.45,0.99-0.09,2.22-0.62,3.12  c1.04,0.58,2.48,1.55,3.74,3.12c2.37,2.94,3.38,7.07,2.18,16.22c-0.81,6.15-2.56,14.23-7.49,25.89c-2.28,5.39-4.44,9.68-5.93,12.48  c3.54,13,7.07,25.99,10.61,38.99c2.57-1.01,4.24-0.75,5.3-0.31c1.73,0.72,2.08,2.02,4.68,4.37c1.23,1.11,2.19,1.76,3.74,2.81  c2.31,1.56,4.86,3.27,8.42,4.37c1.35,0.41,0.77,0.1,4.37,0.94c3.4,0.79,5.29,1.38,7.8,2.18c4.21,1.34,4.85,1.8,5.3,2.5  c1.14,1.75,0.53,4.05,0.16,5.15c-0.11,1.12-0.47,2.97-1.87,4.37c-1.7,1.7-3.99,1.82-7.17,1.87c-5.14,0.09-7.03-0.67-11.23-0.94  c-3.56-0.22-4.09,0.21-10.61,0.62c-8.23,0.53-7.34-0.1-13.72,0.31c-8.16,0.53-10.88,1.54-14.66-0.31c-2.08-1.02-3.5-2.42-4.37-3.43  c-0.42,0.88-1.25,2.34-2.81,3.43c-2.58,1.82-5.26,1.31-12.01,1.4c-1.27,0.02-3.13,0.07-5.43,0.2c-1.06,0.06-2.08-0.42-2.71-1.27  c-4.04-5.54-7.94-7.85-10.88-8.91c-1.51-0.54-3.54-1.03-5.61-2.81c-2.64-2.26-3.8-5.28-4.37-7.49c8.32-6.02,12.02-9.21,13.41-10.92  c0.32-0.4,1.29-1.65,2.81-1.87c1.38-0.2,2.04,0.62,2.81,0.62c2.92,0.01,8.65-11.78,6.55-24.33c-0.68-4.07-2.1-7.73-1.87-14.35  c0.09-2.5,0.38-4.56,0.62-5.93c-1.43-1.1-3.32-2.81-4.99-5.3c-1.68-2.52-2.81-4.37-2.81-4.37s0.01,3.6,0.47,6.39  c0.5,3.02,1.3,3.98,1.56,5.61c0.75,4.75-5.22,8.92-7.64,11.07c-6.14,5.48-9.1,3.71-13.41,9.05c-1.97,2.44-2.43,4.14-4.99,5.61  l-15.6,12.48c-2.86,3.02-5.15,5.15-7.33,7.02c-4.56,3.91-7.39,5.43-10.45,8.89c-1.76,1.99-14.75,16.34-29.63,14.97  c-3.61-0.33-6.5-1.51-8.42-2.5c-5.17,5.76-7.07,5.59-8.42,4.99c-2.77-1.22-0.86-7.07-5.61-13.72c-2-2.79-5.44-5.78-7.8-4.99  c-1.72,0.58-3.3,0.99-4.21,0.47c-2.18-1.25-0.63-7.37-6.39-12.63c0,0-8.89-1.67-11.07-3.59c-2.46-2.16-5.61-11.85-5.61-11.85  c-4.36-6.98-7.17-9.67-9.36-13.41c-2.46-4.22-5.69-21.74-5.93-18.72c-0.92,11.99,0.86,20.48,0.16,21.99L210.56,395.64z   M392.1,414.98c0.31,1.25,6.86,5.93,6.86,5.93c-1.25-9.98,2.81-10.29,2.81-10.61s-3.43-13.41-3.43-13.41  c-0.94,0.94-8.42,14.66-8.42,14.66S391.79,413.73,392.1,414.98z"></path></g><g id="libro">	<g>		<path class="st1" d="M414.63,110.93c-1.62-1.93-3.74-3.64-6.38-5.14c-5.27,5.97-11.97,11.66-19.38,17.22   C397.04,116.98,405.63,112.97,414.63,110.93z"></path>		<path class="st1" d="M431.54,141.31c-10.77,1.25-20.85,5.57-30.4,12.28c-1.54-11.07-5.63-21.21-12.28-30.4   c9.57-6.66,19.66-10.98,30.4-12.28C425.91,120.01,430.01,130.14,431.54,141.31z"></path>	</g>	<g>		<path class="st1" d="M30.82,236.97c1.62-1.93,3.74-3.64,6.38-5.14c5.27,5.97,11.97,11.66,19.38,17.22   C48.41,243.03,39.82,239.02,30.82,236.97z"></path>		<path class="st1" d="M13.91,267.36c10.77,1.25,20.85,5.57,30.4,12.28c1.54-11.07,5.63-21.21,12.28-30.4   c-9.57-6.66-19.66-10.98-30.4-12.28C19.54,246.05,15.44,256.19,13.91,267.36z"></path>	</g></g></svg>